<svg width="190" height="573" viewBox="0 0 190 573" fill="none" xmlns="http://www.w3.org/2000/svg">
<g clip-path="url(#clip0_50_730)">
<path d="M159.16 568.586C158.858 569.285 158.499 569.928 158.085 570.519C157.519 571.325 157.056 571.884 156.7 572.193C156.146 572.702 155.554 572.962 154.919 572.977C154.464 572.977 153.914 572.848 153.275 572.585C152.633 572.323 152.044 572.193 151.505 572.193C150.939 572.193 150.333 572.323 149.684 572.585C149.035 572.848 148.511 572.985 148.111 572.998C147.503 573.024 146.896 572.756 146.291 572.193C145.904 571.856 145.421 571.279 144.842 570.46C144.221 569.586 143.71 568.572 143.31 567.417C142.881 566.169 142.667 564.96 142.667 563.79C142.667 562.45 142.956 561.294 143.536 560.325C143.992 559.547 144.599 558.933 145.358 558.483C146.117 558.032 146.937 557.802 147.821 557.788C148.304 557.788 148.938 557.937 149.725 558.231C150.511 558.526 151.015 558.675 151.236 558.675C151.401 558.675 151.962 558.5 152.911 558.152C153.81 557.829 154.568 557.695 155.188 557.748C156.871 557.883 158.135 558.547 158.976 559.742C157.471 560.654 156.727 561.931 156.742 563.569C156.755 564.845 157.218 565.907 158.128 566.75C158.54 567.142 159.001 567.444 159.513 567.659C159.402 567.981 159.285 568.29 159.16 568.586ZM155.301 553.4C155.301 554.4 154.935 555.334 154.207 556.199C153.328 557.226 152.265 557.82 151.112 557.726C151.097 557.606 151.089 557.48 151.089 557.347C151.089 556.387 151.507 555.36 152.249 554.519C152.62 554.094 153.091 553.74 153.663 553.458C154.233 553.18 154.772 553.026 155.28 553C155.295 553.134 155.301 553.267 155.301 553.4V553.4Z" fill="white"/>
</g>
<path fill-rule="evenodd" clip-rule="evenodd" d="M168.306 0.92862C168.649 0.627309 169.205 0.627309 169.548 0.92862L172.42 3.45264C174.087 2.68191 175.986 2.24574 178 2.24574C180.014 2.24574 181.913 2.68191 183.58 3.45264L186.452 0.92862C186.795 0.627309 187.351 0.627309 187.694 0.92862C188.037 1.22993 188.037 1.71845 187.694 2.01976L185.107 4.29308C188.074 6.21275 190 9.30394 190 12.7903C190 12.8763 189.999 12.962 189.997 13.0475H166.003C166.001 12.962 166 12.8763 166 12.7903C166 9.30394 167.926 6.21275 170.893 4.29308L168.306 2.01976C167.963 1.71845 167.963 1.22993 168.306 0.92862ZM173.317 9.44692C173.964 9.44692 174.488 8.98633 174.488 8.41818C174.488 7.85002 173.964 7.38944 173.317 7.38944C172.67 7.38944 172.146 7.85002 172.146 8.41818C172.146 8.98633 172.67 9.44692 173.317 9.44692ZM183.854 8.41818C183.854 8.98633 183.33 9.44692 182.683 9.44692C182.036 9.44692 181.512 8.98633 181.512 8.41818C181.512 7.85002 182.036 7.38944 182.683 7.38944C183.33 7.38944 183.854 7.85002 183.854 8.41818Z" fill="white"/>
<path d="M5 568H1.40909V556.364H5.15909C6.28788 556.364 7.25379 556.597 8.05682 557.062C8.85985 557.525 9.47538 558.189 9.90341 559.057C10.3314 559.92 10.5455 560.955 10.5455 562.159C10.5455 563.371 10.3295 564.415 9.89773 565.29C9.46591 566.161 8.83712 566.831 8.01136 567.301C7.18561 567.767 6.18182 568 5 568ZM2.81818 566.75H4.90909C5.87121 566.75 6.66856 566.564 7.30114 566.193C7.93371 565.822 8.4053 565.294 8.71591 564.608C9.02652 563.922 9.18182 563.106 9.18182 562.159C9.18182 561.22 9.02841 560.411 8.72159 559.733C8.41477 559.051 7.95644 558.528 7.34659 558.165C6.73674 557.797 5.97727 557.614 5.06818 557.614H2.81818V566.75ZM16.2727 568.182C15.4848 568.182 14.7936 567.994 14.1989 567.619C13.608 567.244 13.1458 566.72 12.8125 566.045C12.483 565.371 12.3182 564.583 12.3182 563.682C12.3182 562.773 12.483 561.979 12.8125 561.301C13.1458 560.623 13.608 560.097 14.1989 559.722C14.7936 559.347 15.4848 559.159 16.2727 559.159C17.0606 559.159 17.75 559.347 18.3409 559.722C18.9356 560.097 19.3977 560.623 19.7273 561.301C20.0606 561.979 20.2273 562.773 20.2273 563.682C20.2273 564.583 20.0606 565.371 19.7273 566.045C19.3977 566.72 18.9356 567.244 18.3409 567.619C17.75 567.994 17.0606 568.182 16.2727 568.182ZM16.2727 566.977C16.8712 566.977 17.3636 566.824 17.75 566.517C18.1364 566.21 18.4223 565.807 18.608 565.307C18.7936 564.807 18.8864 564.265 18.8864 563.682C18.8864 563.098 18.7936 562.555 18.608 562.051C18.4223 561.547 18.1364 561.14 17.75 560.83C17.3636 560.519 16.8712 560.364 16.2727 560.364C15.6742 560.364 15.1818 560.519 14.7955 560.83C14.4091 561.14 14.1231 561.547 13.9375 562.051C13.7519 562.555 13.6591 563.098 13.6591 563.682C13.6591 564.265 13.7519 564.807 13.9375 565.307C14.1231 565.807 14.4091 566.21 14.7955 566.517C15.1818 566.824 15.6742 566.977 16.2727 566.977ZM23.9545 568L21.2955 559.273H22.7045L24.5909 565.955H24.6818L26.5455 559.273H27.9773L29.8182 565.932H29.9091L31.7955 559.273H33.2045L30.5455 568H29.2273L27.3182 561.295H27.1818L25.2727 568H23.9545ZM36.3182 562.75V568H34.9773V559.273H36.2727V560.636H36.3864C36.5909 560.193 36.9015 559.837 37.3182 559.568C37.7348 559.295 38.2727 559.159 38.9318 559.159C39.5227 559.159 40.0398 559.28 40.483 559.523C40.9261 559.761 41.2708 560.125 41.517 560.614C41.7633 561.098 41.8864 561.712 41.8864 562.455V568H40.5455V562.545C40.5455 561.86 40.3674 561.326 40.0114 560.943C39.6553 560.557 39.1667 560.364 38.5455 560.364C38.1174 560.364 37.7348 560.456 37.3977 560.642C37.0644 560.828 36.8011 561.098 36.608 561.455C36.4148 561.811 36.3182 562.242 36.3182 562.75ZM45.6776 556.364V568H44.3366V556.364H45.6776ZM51.679 568.182C50.8911 568.182 50.1998 567.994 49.6051 567.619C49.0142 567.244 48.5521 566.72 48.2188 566.045C47.8892 565.371 47.7244 564.583 47.7244 563.682C47.7244 562.773 47.8892 561.979 48.2188 561.301C48.5521 560.623 49.0142 560.097 49.6051 559.722C50.1998 559.347 50.8911 559.159 51.679 559.159C52.4669 559.159 53.1563 559.347 53.7472 559.722C54.3419 560.097 54.804 560.623 55.1335 561.301C55.4669 561.979 55.6335 562.773 55.6335 563.682C55.6335 564.583 55.4669 565.371 55.1335 566.045C54.804 566.72 54.3419 567.244 53.7472 567.619C53.1563 567.994 52.4669 568.182 51.679 568.182ZM51.679 566.977C52.2775 566.977 52.7699 566.824 53.1562 566.517C53.5426 566.21 53.8286 565.807 54.0142 565.307C54.1998 564.807 54.2926 564.265 54.2926 563.682C54.2926 563.098 54.1998 562.555 54.0142 562.051C53.8286 561.547 53.5426 561.14 53.1562 560.83C52.7699 560.519 52.2775 560.364 51.679 560.364C51.0805 560.364 50.5881 560.519 50.2017 560.83C49.8153 561.14 49.5294 561.547 49.3438 562.051C49.1581 562.555 49.0653 563.098 49.0653 563.682C49.0653 564.265 49.1581 564.807 49.3438 565.307C49.5294 565.807 49.8153 566.21 50.2017 566.517C50.5881 566.824 51.0805 566.977 51.679 566.977ZM60.2486 568.205C59.6955 568.205 59.1937 568.1 58.7429 567.892C58.2921 567.68 57.9342 567.375 57.669 566.977C57.4039 566.576 57.2713 566.091 57.2713 565.523C57.2713 565.023 57.3698 564.617 57.5668 564.307C57.7637 563.992 58.027 563.746 58.3565 563.568C58.6861 563.39 59.0497 563.258 59.4474 563.17C59.849 563.08 60.2524 563.008 60.6577 562.955C61.188 562.886 61.6179 562.835 61.9474 562.801C62.2808 562.763 62.5232 562.701 62.6747 562.614C62.83 562.527 62.9077 562.375 62.9077 562.159V562.114C62.9077 561.553 62.7543 561.117 62.4474 560.807C62.1444 560.496 61.6842 560.341 61.0668 560.341C60.4266 560.341 59.9247 560.481 59.5611 560.761C59.1974 561.042 58.9418 561.341 58.794 561.659L57.5213 561.205C57.7486 560.674 58.0516 560.261 58.4304 559.966C58.813 559.667 59.2296 559.458 59.6804 559.341C60.1349 559.22 60.5819 559.159 61.0213 559.159C61.3016 559.159 61.6236 559.193 61.9872 559.261C62.3546 559.326 62.7088 559.46 63.0497 559.665C63.3944 559.869 63.6804 560.178 63.9077 560.591C64.1349 561.004 64.2486 561.557 64.2486 562.25V568H62.9077V566.818H62.8395C62.7486 567.008 62.5971 567.21 62.3849 567.426C62.1728 567.642 61.8906 567.826 61.5384 567.977C61.1861 568.129 60.7562 568.205 60.2486 568.205ZM60.4531 567C60.9834 567 61.4304 566.896 61.794 566.688C62.1615 566.479 62.438 566.21 62.6236 565.881C62.813 565.551 62.9077 565.205 62.9077 564.841V563.614C62.8509 563.682 62.7259 563.744 62.5327 563.801C62.3433 563.854 62.1236 563.902 61.8736 563.943C61.6274 563.981 61.3868 564.015 61.152 564.045C60.9209 564.072 60.7334 564.095 60.5895 564.114C60.241 564.159 59.9152 564.233 59.6122 564.335C59.313 564.434 59.0705 564.583 58.8849 564.784C58.7031 564.981 58.6122 565.25 58.6122 565.591C58.6122 566.057 58.7846 566.409 59.1293 566.648C59.4777 566.883 59.919 567 60.4531 567ZM69.9915 568.182C69.2642 568.182 68.6222 567.998 68.0653 567.631C67.5085 567.259 67.0729 566.737 66.7585 566.062C66.4441 565.384 66.2869 564.583 66.2869 563.659C66.2869 562.742 66.4441 561.947 66.7585 561.273C67.0729 560.598 67.5104 560.078 68.071 559.71C68.6316 559.343 69.2794 559.159 70.0142 559.159C70.5824 559.159 71.0313 559.254 71.3608 559.443C71.6941 559.629 71.9479 559.841 72.1222 560.08C72.3002 560.314 72.4384 560.508 72.5369 560.659H72.6506V556.364H73.9915V568H72.696V566.659H72.5369C72.4384 566.818 72.2983 567.019 72.1165 567.261C71.9347 567.5 71.6752 567.714 71.3381 567.903C71.0009 568.089 70.5521 568.182 69.9915 568.182ZM70.1733 566.977C70.7112 566.977 71.1657 566.837 71.5369 566.557C71.9081 566.273 72.1903 565.881 72.3835 565.381C72.5767 564.877 72.6733 564.295 72.6733 563.636C72.6733 562.985 72.5786 562.415 72.3892 561.926C72.1998 561.434 71.9195 561.051 71.5483 560.778C71.1771 560.502 70.7188 560.364 70.1733 560.364C69.6051 560.364 69.1316 560.509 68.7528 560.801C68.3778 561.089 68.0956 561.481 67.9062 561.977C67.7206 562.47 67.6278 563.023 67.6278 563.636C67.6278 564.258 67.7225 564.822 67.9119 565.33C68.1051 565.833 68.3892 566.235 68.7642 566.534C69.143 566.83 69.6127 566.977 70.1733 566.977ZM84.679 568.182C83.8911 568.182 83.1998 567.994 82.6051 567.619C82.0142 567.244 81.5521 566.72 81.2188 566.045C80.8892 565.371 80.7244 564.583 80.7244 563.682C80.7244 562.773 80.8892 561.979 81.2188 561.301C81.5521 560.623 82.0142 560.097 82.6051 559.722C83.1998 559.347 83.8911 559.159 84.679 559.159C85.4669 559.159 86.1563 559.347 86.7472 559.722C87.3419 560.097 87.804 560.623 88.1335 561.301C88.4669 561.979 88.6335 562.773 88.6335 563.682C88.6335 564.583 88.4669 565.371 88.1335 566.045C87.804 566.72 87.3419 567.244 86.7472 567.619C86.1563 567.994 85.4669 568.182 84.679 568.182ZM84.679 566.977C85.2775 566.977 85.7699 566.824 86.1562 566.517C86.5426 566.21 86.8286 565.807 87.0142 565.307C87.1998 564.807 87.2926 564.265 87.2926 563.682C87.2926 563.098 87.1998 562.555 87.0142 562.051C86.8286 561.547 86.5426 561.14 86.1562 560.83C85.7699 560.519 85.2775 560.364 84.679 560.364C84.0805 560.364 83.5881 560.519 83.2017 560.83C82.8153 561.14 82.5294 561.547 82.3438 562.051C82.1581 562.555 82.0653 563.098 82.0653 563.682C82.0653 564.265 82.1581 564.807 82.3438 565.307C82.5294 565.807 82.8153 566.21 83.2017 566.517C83.5881 566.824 84.0805 566.977 84.679 566.977ZM96.1804 564.432V559.273H97.5213V568H96.1804V566.523H96.0895C95.8849 566.966 95.5668 567.343 95.1349 567.653C94.7031 567.96 94.1577 568.114 93.4986 568.114C92.9531 568.114 92.4683 567.994 92.044 567.756C91.6198 567.513 91.2865 567.15 91.044 566.665C90.8016 566.176 90.6804 565.561 90.6804 564.818V559.273H92.0213V564.727C92.0213 565.364 92.1993 565.871 92.5554 566.25C92.9152 566.629 93.3736 566.818 93.9304 566.818C94.2637 566.818 94.6027 566.733 94.9474 566.562C95.2959 566.392 95.5876 566.131 95.8224 565.778C96.0611 565.426 96.1804 564.977 96.1804 564.432ZM99.9773 568V559.273H101.273V560.591H101.364C101.523 560.159 101.811 559.809 102.227 559.54C102.644 559.271 103.114 559.136 103.636 559.136C103.735 559.136 103.858 559.138 104.006 559.142C104.153 559.146 104.265 559.152 104.341 559.159V560.523C104.295 560.511 104.191 560.494 104.028 560.472C103.869 560.445 103.701 560.432 103.523 560.432C103.098 560.432 102.72 560.521 102.386 560.699C102.057 560.873 101.795 561.116 101.602 561.426C101.413 561.733 101.318 562.083 101.318 562.477V568H99.9773ZM112.999 568.205C112.446 568.205 111.944 568.1 111.493 567.892C111.042 567.68 110.684 567.375 110.419 566.977C110.154 566.576 110.021 566.091 110.021 565.523C110.021 565.023 110.12 564.617 110.317 564.307C110.514 563.992 110.777 563.746 111.107 563.568C111.436 563.39 111.8 563.258 112.197 563.17C112.599 563.08 113.002 563.008 113.408 562.955C113.938 562.886 114.368 562.835 114.697 562.801C115.031 562.763 115.273 562.701 115.425 562.614C115.58 562.527 115.658 562.375 115.658 562.159V562.114C115.658 561.553 115.504 561.117 115.197 560.807C114.894 560.496 114.434 560.341 113.817 560.341C113.177 560.341 112.675 560.481 112.311 560.761C111.947 561.042 111.692 561.341 111.544 561.659L110.271 561.205C110.499 560.674 110.802 560.261 111.18 559.966C111.563 559.667 111.98 559.458 112.43 559.341C112.885 559.22 113.332 559.159 113.771 559.159C114.052 559.159 114.374 559.193 114.737 559.261C115.105 559.326 115.459 559.46 115.8 559.665C116.144 559.869 116.43 560.178 116.658 560.591C116.885 561.004 116.999 561.557 116.999 562.25V568H115.658V566.818H115.589C115.499 567.008 115.347 567.21 115.135 567.426C114.923 567.642 114.641 567.826 114.288 567.977C113.936 568.129 113.506 568.205 112.999 568.205ZM113.203 567C113.733 567 114.18 566.896 114.544 566.688C114.911 566.479 115.188 566.21 115.374 565.881C115.563 565.551 115.658 565.205 115.658 564.841V563.614C115.601 563.682 115.476 563.744 115.283 563.801C115.093 563.854 114.874 563.902 114.624 563.943C114.377 563.981 114.137 564.015 113.902 564.045C113.671 564.072 113.483 564.095 113.339 564.114C112.991 564.159 112.665 564.233 112.362 564.335C112.063 564.434 111.821 564.583 111.635 564.784C111.453 564.981 111.362 565.25 111.362 565.591C111.362 566.057 111.535 566.409 111.879 566.648C112.228 566.883 112.669 567 113.203 567ZM119.446 571.273V559.273H120.741V560.659H120.901C120.999 560.508 121.135 560.314 121.31 560.08C121.488 559.841 121.741 559.629 122.071 559.443C122.404 559.254 122.855 559.159 123.423 559.159C124.158 559.159 124.806 559.343 125.366 559.71C125.927 560.078 126.365 560.598 126.679 561.273C126.993 561.947 127.151 562.742 127.151 563.659C127.151 564.583 126.993 565.384 126.679 566.062C126.365 566.737 125.929 567.259 125.372 567.631C124.815 567.998 124.173 568.182 123.446 568.182C122.885 568.182 122.437 568.089 122.099 567.903C121.762 567.714 121.503 567.5 121.321 567.261C121.139 567.019 120.999 566.818 120.901 566.659H120.787V571.273H119.446ZM120.764 563.636C120.764 564.295 120.861 564.877 121.054 565.381C121.247 565.881 121.529 566.273 121.901 566.557C122.272 566.837 122.726 566.977 123.264 566.977C123.825 566.977 124.293 566.83 124.668 566.534C125.046 566.235 125.33 565.833 125.52 565.33C125.713 564.822 125.81 564.258 125.81 563.636C125.81 563.023 125.715 562.47 125.526 561.977C125.34 561.481 125.058 561.089 124.679 560.801C124.304 560.509 123.832 560.364 123.264 560.364C122.719 560.364 122.26 560.502 121.889 560.778C121.518 561.051 121.238 561.434 121.048 561.926C120.859 562.415 120.764 562.985 120.764 563.636ZM129.196 571.273V559.273H130.491V560.659H130.651C130.749 560.508 130.885 560.314 131.06 560.08C131.238 559.841 131.491 559.629 131.821 559.443C132.154 559.254 132.605 559.159 133.173 559.159C133.908 559.159 134.556 559.343 135.116 559.71C135.677 560.078 136.115 560.598 136.429 561.273C136.743 561.947 136.901 562.742 136.901 563.659C136.901 564.583 136.743 565.384 136.429 566.062C136.115 566.737 135.679 567.259 135.122 567.631C134.565 567.998 133.923 568.182 133.196 568.182C132.635 568.182 132.187 568.089 131.849 567.903C131.512 567.714 131.253 567.5 131.071 567.261C130.889 567.019 130.749 566.818 130.651 566.659H130.537V571.273H129.196ZM130.514 563.636C130.514 564.295 130.611 564.877 130.804 565.381C130.997 565.881 131.279 566.273 131.651 566.557C132.022 566.837 132.476 566.977 133.014 566.977C133.575 566.977 134.043 566.83 134.418 566.534C134.796 566.235 135.08 565.833 135.27 565.33C135.463 564.822 135.56 564.258 135.56 563.636C135.56 563.023 135.465 562.47 135.276 561.977C135.09 561.481 134.808 561.089 134.429 560.801C134.054 560.509 133.582 560.364 133.014 560.364C132.469 560.364 132.01 560.502 131.639 560.778C131.268 561.051 130.988 561.434 130.798 561.926C130.609 562.415 130.514 562.985 130.514 563.636Z" fill="white"/>
<defs>
<clipPath id="clip0_50_730">
<rect width="20" height="20" fill="white" transform="translate(141 553)"/>
</clipPath>
</defs>
</svg>
