<svg width="191" height="21" viewBox="0 0 191 21" fill="none" xmlns="http://www.w3.org/2000/svg">
<g clip-path="url(#clip0_50_730)">
<path d="M159.16 16.5289C158.858 17.2277 158.499 17.8709 158.085 18.4622C157.519 19.2684 157.056 19.8264 156.7 20.1362C156.146 20.6449 155.554 20.9054 154.919 20.9202C154.464 20.9202 153.914 20.7905 153.275 20.5276C152.633 20.2659 152.044 20.1362 151.505 20.1362C150.939 20.1362 150.333 20.2659 149.684 20.5276C149.035 20.7905 148.511 20.9276 148.111 20.9412C147.503 20.9671 146.896 20.6992 146.291 20.1362C145.904 19.7992 145.421 19.2215 144.842 18.403C144.221 17.5289 143.71 16.5154 143.31 15.3598C142.881 14.1117 142.667 12.9031 142.667 11.733C142.667 10.3927 142.956 9.2367 143.536 8.26796C143.992 7.48984 144.599 6.87603 145.358 6.42542C146.117 5.97482 146.937 5.7452 147.821 5.73051C148.304 5.73051 148.938 5.88001 149.725 6.17383C150.511 6.46863 151.015 6.61813 151.236 6.61813C151.401 6.61813 151.962 6.44332 152.911 6.09482C153.81 5.77162 154.568 5.63779 155.188 5.69051C156.871 5.82631 158.135 6.48962 158.976 7.68465C157.471 8.59647 156.727 9.87359 156.742 11.5119C156.755 12.7881 157.218 13.85 158.128 14.6932C158.54 15.0845 159.001 15.387 159.513 15.6018C159.402 15.924 159.285 16.2327 159.16 16.5289ZM155.301 1.34299C155.301 2.34321 154.935 3.27712 154.207 4.14154C153.328 5.16917 152.265 5.76298 151.112 5.66927C151.097 5.54928 151.089 5.42299 151.089 5.29027C151.089 4.33006 151.507 3.30243 152.249 2.46221C152.62 2.03679 153.091 1.68306 153.663 1.40088C154.233 1.12292 154.772 0.969195 155.28 0.942871C155.295 1.07659 155.301 1.21031 155.301 1.34297V1.34299Z" fill="white"/>
</g>
<path fill-rule="evenodd" clip-rule="evenodd" d="M169.306 7.22598C169.649 6.92467 170.205 6.92467 170.548 7.22598L173.42 9.75C175.087 8.97928 176.986 8.54311 179 8.54311C181.014 8.54311 182.913 8.97928 184.58 9.75L187.452 7.22598C187.795 6.92467 188.351 6.92467 188.694 7.22598C189.037 7.52729 189.037 8.01581 188.694 8.31713L186.107 10.5904C189.074 12.5101 191 15.6013 191 19.0877C191 19.1737 190.999 19.2594 190.997 19.3449H167.003C167.001 19.2594 167 19.1737 167 19.0877C167 15.6013 168.926 12.5101 171.893 10.5904L169.306 8.31713C168.963 8.01581 168.963 7.52729 169.306 7.22598ZM174.317 15.7443C174.964 15.7443 175.488 15.2837 175.488 14.7155C175.488 14.1474 174.964 13.6868 174.317 13.6868C173.67 13.6868 173.146 14.1474 173.146 14.7155C173.146 15.2837 173.67 15.7443 174.317 15.7443ZM184.854 14.7155C184.854 15.2837 184.33 15.7443 183.683 15.7443C183.036 15.7443 182.512 15.2837 182.512 14.7155C182.512 14.1474 183.036 13.6868 183.683 13.6868C184.33 13.6868 184.854 14.1474 184.854 14.7155Z" fill="white"/>
<path d="M5 15.9429H1.40909V4.30651H5.15909C6.28788 4.30651 7.25379 4.53946 8.05682 5.00537C8.85985 5.46749 9.47538 6.13226 9.90341 6.99969C10.3314 7.86333 10.5455 8.89742 10.5455 10.102C10.5455 11.3141 10.3295 12.3576 9.89773 13.2326C9.46591 14.1039 8.83712 14.7743 8.01136 15.244C7.18561 15.7099 6.18182 15.9429 5 15.9429ZM2.81818 14.6929H4.90909C5.87121 14.6929 6.66856 14.5073 7.30114 14.1361C7.93371 13.7648 8.4053 13.2364 8.71591 12.5508C9.02652 11.8652 9.18182 11.0489 9.18182 10.102C9.18182 9.16257 9.02841 8.35386 8.72159 7.67583C8.41477 6.99401 7.95644 6.47128 7.34659 6.10764C6.73674 5.74022 5.97727 5.55651 5.06818 5.55651H2.81818V14.6929ZM16.2727 16.1247C15.4848 16.1247 14.7936 15.9372 14.1989 15.5622C13.608 15.1872 13.1458 14.6626 12.8125 13.9883C12.483 13.3141 12.3182 12.5262 12.3182 11.6247C12.3182 10.7156 12.483 9.92204 12.8125 9.24401C13.1458 8.56598 13.608 8.03946 14.1989 7.66446C14.7936 7.28946 15.4848 7.10196 16.2727 7.10196C17.0606 7.10196 17.75 7.28946 18.3409 7.66446C18.9356 8.03946 19.3977 8.56598 19.7273 9.24401C20.0606 9.92204 20.2273 10.7156 20.2273 11.6247C20.2273 12.5262 20.0606 13.3141 19.7273 13.9883C19.3977 14.6626 18.9356 15.1872 18.3409 15.5622C17.75 15.9372 17.0606 16.1247 16.2727 16.1247ZM16.2727 14.9201C16.8712 14.9201 17.3636 14.7667 17.75 14.4599C18.1364 14.1531 18.4223 13.7497 18.608 13.2497C18.7936 12.7497 18.8864 12.208 18.8864 11.6247C18.8864 11.0414 18.7936 10.4978 18.608 9.99401C18.4223 9.49022 18.1364 9.08302 17.75 8.77242C17.3636 8.46181 16.8712 8.30651 16.2727 8.30651C15.6742 8.30651 15.1818 8.46181 14.7955 8.77242C14.4091 9.08302 14.1231 9.49022 13.9375 9.99401C13.7519 10.4978 13.6591 11.0414 13.6591 11.6247C13.6591 12.208 13.7519 12.7497 13.9375 13.2497C14.1231 13.7497 14.4091 14.1531 14.7955 14.4599C15.1818 14.7667 15.6742 14.9201 16.2727 14.9201ZM23.9545 15.9429L21.2955 7.2156H22.7045L24.5909 13.8974H24.6818L26.5455 7.2156H27.9773L29.8182 13.8747H29.9091L31.7955 7.2156H33.2045L30.5455 15.9429H29.2273L27.3182 9.23833H27.1818L25.2727 15.9429H23.9545ZM36.3182 10.6929V15.9429H34.9773V7.2156H36.2727V8.57923H36.3864C36.5909 8.13605 36.9015 7.77999 37.3182 7.51105C37.7348 7.23833 38.2727 7.10196 38.9318 7.10196C39.5227 7.10196 40.0398 7.22317 40.483 7.4656C40.9261 7.70423 41.2708 8.06787 41.517 8.55651C41.7633 9.04136 41.8864 9.65499 41.8864 10.3974V15.9429H40.5455V10.4883C40.5455 9.80272 40.3674 9.26863 40.0114 8.88605C39.6553 8.49969 39.1667 8.30651 38.5455 8.30651C38.1174 8.30651 37.7348 8.39931 37.3977 8.58492C37.0644 8.77052 36.8011 9.04136 36.608 9.39742C36.4148 9.75348 36.3182 10.1853 36.3182 10.6929ZM45.6776 4.30651V15.9429H44.3366V4.30651H45.6776ZM51.679 16.1247C50.8911 16.1247 50.1998 15.9372 49.6051 15.5622C49.0142 15.1872 48.5521 14.6626 48.2188 13.9883C47.8892 13.3141 47.7244 12.5262 47.7244 11.6247C47.7244 10.7156 47.8892 9.92204 48.2188 9.24401C48.5521 8.56598 49.0142 8.03946 49.6051 7.66446C50.1998 7.28946 50.8911 7.10196 51.679 7.10196C52.4669 7.10196 53.1563 7.28946 53.7472 7.66446C54.3419 8.03946 54.804 8.56598 55.1335 9.24401C55.4669 9.92204 55.6335 10.7156 55.6335 11.6247C55.6335 12.5262 55.4669 13.3141 55.1335 13.9883C54.804 14.6626 54.3419 15.1872 53.7472 15.5622C53.1563 15.9372 52.4669 16.1247 51.679 16.1247ZM51.679 14.9201C52.2775 14.9201 52.7699 14.7667 53.1562 14.4599C53.5426 14.1531 53.8286 13.7497 54.0142 13.2497C54.1998 12.7497 54.2926 12.208 54.2926 11.6247C54.2926 11.0414 54.1998 10.4978 54.0142 9.99401C53.8286 9.49022 53.5426 9.08302 53.1562 8.77242C52.7699 8.46181 52.2775 8.30651 51.679 8.30651C51.0805 8.30651 50.5881 8.46181 50.2017 8.77242C49.8153 9.08302 49.5294 9.49022 49.3438 9.99401C49.1581 10.4978 49.0653 11.0414 49.0653 11.6247C49.0653 12.208 49.1581 12.7497 49.3438 13.2497C49.5294 13.7497 49.8153 14.1531 50.2017 14.4599C50.5881 14.7667 51.0805 14.9201 51.679 14.9201ZM60.2486 16.1474C59.6955 16.1474 59.1937 16.0432 58.7429 15.8349C58.2921 15.6228 57.9342 15.3179 57.669 14.9201C57.4039 14.5186 57.2713 14.0338 57.2713 13.4656C57.2713 12.9656 57.3698 12.5603 57.5668 12.2497C57.7637 11.9353 58.027 11.6891 58.3565 11.5111C58.6861 11.333 59.0497 11.2004 59.4474 11.1133C59.849 11.0224 60.2524 10.9504 60.6577 10.8974C61.188 10.8292 61.6179 10.7781 61.9474 10.744C62.2808 10.7061 62.5232 10.6436 62.6747 10.5565C62.83 10.4694 62.9077 10.3179 62.9077 10.102V10.0565C62.9077 9.4959 62.7543 9.0603 62.4474 8.74969C62.1444 8.43908 61.6842 8.28378 61.0668 8.28378C60.4266 8.28378 59.9247 8.42393 59.5611 8.70423C59.1974 8.98454 58.9418 9.28378 58.794 9.60196L57.5213 9.14742C57.7486 8.61711 58.0516 8.20423 58.4304 7.90878C58.813 7.60954 59.2296 7.4012 59.6804 7.28378C60.1349 7.16257 60.5819 7.10196 61.0213 7.10196C61.3016 7.10196 61.6236 7.13605 61.9872 7.20423C62.3546 7.26863 62.7088 7.4031 63.0497 7.60764C63.3944 7.81219 63.6804 8.1209 63.9077 8.53378C64.1349 8.94666 64.2486 9.49969 64.2486 10.1929V15.9429H62.9077V14.7611H62.8395C62.7486 14.9504 62.5971 15.1531 62.3849 15.369C62.1728 15.5849 61.8906 15.7686 61.5384 15.9201C61.1861 16.0717 60.7562 16.1474 60.2486 16.1474ZM60.4531 14.9429C60.9834 14.9429 61.4304 14.8387 61.794 14.6304C62.1615 14.422 62.438 14.1531 62.6236 13.8236C62.813 13.494 62.9077 13.1474 62.9077 12.7838V11.5565C62.8509 11.6247 62.7259 11.6872 62.5327 11.744C62.3433 11.797 62.1236 11.8444 61.8736 11.8861C61.6274 11.9239 61.3868 11.958 61.152 11.9883C60.9209 12.0148 60.7334 12.0376 60.5895 12.0565C60.241 12.102 59.9152 12.1758 59.6122 12.2781C59.313 12.3766 59.0705 12.5262 58.8849 12.727C58.7031 12.9239 58.6122 13.1929 58.6122 13.5338C58.6122 13.9997 58.7846 14.352 59.1293 14.5906C59.4777 14.8254 59.919 14.9429 60.4531 14.9429ZM69.9915 16.1247C69.2642 16.1247 68.6222 15.941 68.0653 15.5736C67.5085 15.2023 67.0729 14.6796 66.7585 14.0054C66.4441 13.3273 66.2869 12.5262 66.2869 11.602C66.2869 10.6853 66.4441 9.88984 66.7585 9.2156C67.0729 8.54136 67.5104 8.02052 68.071 7.6531C68.6316 7.28567 69.2794 7.10196 70.0142 7.10196C70.5824 7.10196 71.0313 7.19666 71.3608 7.38605C71.6941 7.57166 71.9479 7.78378 72.1222 8.02242C72.3002 8.25726 72.4384 8.45045 72.5369 8.60196H72.6506V4.30651H73.9915V15.9429H72.696V14.602H72.5369C72.4384 14.7611 72.2983 14.9618 72.1165 15.2042C71.9347 15.4429 71.6752 15.6569 71.3381 15.8463C71.0009 16.0319 70.5521 16.1247 69.9915 16.1247ZM70.1733 14.9201C70.7112 14.9201 71.1657 14.78 71.5369 14.4997C71.9081 14.2156 72.1903 13.8236 72.3835 13.3236C72.5767 12.8198 72.6733 12.2383 72.6733 11.5792C72.6733 10.9277 72.5786 10.3576 72.3892 9.86901C72.1998 9.37658 71.9195 8.99401 71.5483 8.72128C71.1771 8.44476 70.7188 8.30651 70.1733 8.30651C69.6051 8.30651 69.1316 8.45234 68.7528 8.74401C68.3778 9.03189 68.0956 9.42393 67.9062 9.92014C67.7206 10.4126 67.6278 10.9656 67.6278 11.5792C67.6278 12.2004 67.7225 12.7648 67.9119 13.2724C68.1051 13.7762 68.3892 14.1777 68.7642 14.477C69.143 14.7724 69.6127 14.9201 70.1733 14.9201ZM84.679 16.1247C83.8911 16.1247 83.1998 15.9372 82.6051 15.5622C82.0142 15.1872 81.5521 14.6626 81.2188 13.9883C80.8892 13.3141 80.7244 12.5262 80.7244 11.6247C80.7244 10.7156 80.8892 9.92204 81.2188 9.24401C81.5521 8.56598 82.0142 8.03946 82.6051 7.66446C83.1998 7.28946 83.8911 7.10196 84.679 7.10196C85.4669 7.10196 86.1563 7.28946 86.7472 7.66446C87.3419 8.03946 87.804 8.56598 88.1335 9.24401C88.4669 9.92204 88.6335 10.7156 88.6335 11.6247C88.6335 12.5262 88.4669 13.3141 88.1335 13.9883C87.804 14.6626 87.3419 15.1872 86.7472 15.5622C86.1563 15.9372 85.4669 16.1247 84.679 16.1247ZM84.679 14.9201C85.2775 14.9201 85.7699 14.7667 86.1562 14.4599C86.5426 14.1531 86.8286 13.7497 87.0142 13.2497C87.1998 12.7497 87.2926 12.208 87.2926 11.6247C87.2926 11.0414 87.1998 10.4978 87.0142 9.99401C86.8286 9.49022 86.5426 9.08302 86.1562 8.77242C85.7699 8.46181 85.2775 8.30651 84.679 8.30651C84.0805 8.30651 83.5881 8.46181 83.2017 8.77242C82.8153 9.08302 82.5294 9.49022 82.3438 9.99401C82.1581 10.4978 82.0653 11.0414 82.0653 11.6247C82.0653 12.208 82.1581 12.7497 82.3438 13.2497C82.5294 13.7497 82.8153 14.1531 83.2017 14.4599C83.5881 14.7667 84.0805 14.9201 84.679 14.9201ZM96.1804 12.3747V7.2156H97.5213V15.9429H96.1804V14.4656H96.0895C95.8849 14.9088 95.5668 15.2857 95.1349 15.5963C94.7031 15.9031 94.1577 16.0565 93.4986 16.0565C92.9531 16.0565 92.4683 15.9372 92.044 15.6986C91.6198 15.4561 91.2865 15.0925 91.044 14.6076C90.8016 14.119 90.6804 13.5035 90.6804 12.7611V7.2156H92.0213V12.6701C92.0213 13.3065 92.1993 13.8141 92.5554 14.1929C92.9152 14.5717 93.3736 14.7611 93.9304 14.7611C94.2637 14.7611 94.6027 14.6758 94.9474 14.5054C95.2959 14.3349 95.5876 14.0736 95.8224 13.7213C96.0611 13.369 96.1804 12.9201 96.1804 12.3747ZM99.9773 15.9429V7.2156H101.273V8.53378H101.364C101.523 8.10196 101.811 7.75158 102.227 7.48264C102.644 7.2137 103.114 7.07923 103.636 7.07923C103.735 7.07923 103.858 7.08113 104.006 7.08492C104.153 7.0887 104.265 7.09439 104.341 7.10196V8.4656C104.295 8.45423 104.191 8.43719 104.028 8.41446C103.869 8.38795 103.701 8.37469 103.523 8.37469C103.098 8.37469 102.72 8.4637 102.386 8.64173C102.057 8.81598 101.795 9.0584 101.602 9.36901C101.413 9.67583 101.318 10.0262 101.318 10.4201V15.9429H99.9773ZM112.999 16.1474C112.446 16.1474 111.944 16.0432 111.493 15.8349C111.042 15.6228 110.684 15.3179 110.419 14.9201C110.154 14.5186 110.021 14.0338 110.021 13.4656C110.021 12.9656 110.12 12.5603 110.317 12.2497C110.514 11.9353 110.777 11.6891 111.107 11.5111C111.436 11.333 111.8 11.2004 112.197 11.1133C112.599 11.0224 113.002 10.9504 113.408 10.8974C113.938 10.8292 114.368 10.7781 114.697 10.744C115.031 10.7061 115.273 10.6436 115.425 10.5565C115.58 10.4694 115.658 10.3179 115.658 10.102V10.0565C115.658 9.4959 115.504 9.0603 115.197 8.74969C114.894 8.43908 114.434 8.28378 113.817 8.28378C113.177 8.28378 112.675 8.42393 112.311 8.70423C111.947 8.98454 111.692 9.28378 111.544 9.60196L110.271 9.14742C110.499 8.61711 110.802 8.20423 111.18 7.90878C111.563 7.60954 111.98 7.4012 112.43 7.28378C112.885 7.16257 113.332 7.10196 113.771 7.10196C114.052 7.10196 114.374 7.13605 114.737 7.20423C115.105 7.26863 115.459 7.4031 115.8 7.60764C116.144 7.81219 116.43 8.1209 116.658 8.53378C116.885 8.94666 116.999 9.49969 116.999 10.1929V15.9429H115.658V14.7611H115.589C115.499 14.9504 115.347 15.1531 115.135 15.369C114.923 15.5849 114.641 15.7686 114.288 15.9201C113.936 16.0717 113.506 16.1474 112.999 16.1474ZM113.203 14.9429C113.733 14.9429 114.18 14.8387 114.544 14.6304C114.911 14.422 115.188 14.1531 115.374 13.8236C115.563 13.494 115.658 13.1474 115.658 12.7838V11.5565C115.601 11.6247 115.476 11.6872 115.283 11.744C115.093 11.797 114.874 11.8444 114.624 11.8861C114.377 11.9239 114.137 11.958 113.902 11.9883C113.671 12.0148 113.483 12.0376 113.339 12.0565C112.991 12.102 112.665 12.1758 112.362 12.2781C112.063 12.3766 111.821 12.5262 111.635 12.727C111.453 12.9239 111.362 13.1929 111.362 13.5338C111.362 13.9997 111.535 14.352 111.879 14.5906C112.228 14.8254 112.669 14.9429 113.203 14.9429ZM119.446 19.2156V7.2156H120.741V8.60196H120.901C120.999 8.45045 121.135 8.25726 121.31 8.02242C121.488 7.78378 121.741 7.57166 122.071 7.38605C122.404 7.19666 122.855 7.10196 123.423 7.10196C124.158 7.10196 124.806 7.28567 125.366 7.6531C125.927 8.02052 126.365 8.54136 126.679 9.2156C126.993 9.88984 127.151 10.6853 127.151 11.602C127.151 12.5262 126.993 13.3273 126.679 14.0054C126.365 14.6796 125.929 15.2023 125.372 15.5736C124.815 15.941 124.173 16.1247 123.446 16.1247C122.885 16.1247 122.437 16.0319 122.099 15.8463C121.762 15.6569 121.503 15.4429 121.321 15.2042C121.139 14.9618 120.999 14.7611 120.901 14.602H120.787V19.2156H119.446ZM120.764 11.5792C120.764 12.2383 120.861 12.8198 121.054 13.3236C121.247 13.8236 121.529 14.2156 121.901 14.4997C122.272 14.78 122.726 14.9201 123.264 14.9201C123.825 14.9201 124.293 14.7724 124.668 14.477C125.046 14.1777 125.33 13.7762 125.52 13.2724C125.713 12.7648 125.81 12.2004 125.81 11.5792C125.81 10.9656 125.715 10.4126 125.526 9.92014C125.34 9.42393 125.058 9.03189 124.679 8.74401C124.304 8.45234 123.832 8.30651 123.264 8.30651C122.719 8.30651 122.26 8.44476 121.889 8.72128C121.518 8.99401 121.238 9.37658 121.048 9.86901C120.859 10.3576 120.764 10.9277 120.764 11.5792ZM129.196 19.2156V7.2156H130.491V8.60196H130.651C130.749 8.45045 130.885 8.25726 131.06 8.02242C131.238 7.78378 131.491 7.57166 131.821 7.38605C132.154 7.19666 132.605 7.10196 133.173 7.10196C133.908 7.10196 134.556 7.28567 135.116 7.6531C135.677 8.02052 136.115 8.54136 136.429 9.2156C136.743 9.88984 136.901 10.6853 136.901 11.602C136.901 12.5262 136.743 13.3273 136.429 14.0054C136.115 14.6796 135.679 15.2023 135.122 15.5736C134.565 15.941 133.923 16.1247 133.196 16.1247C132.635 16.1247 132.187 16.0319 131.849 15.8463C131.512 15.6569 131.253 15.4429 131.071 15.2042C130.889 14.9618 130.749 14.7611 130.651 14.602H130.537V19.2156H129.196ZM130.514 11.5792C130.514 12.2383 130.611 12.8198 130.804 13.3236C130.997 13.8236 131.279 14.2156 131.651 14.4997C132.022 14.78 132.476 14.9201 133.014 14.9201C133.575 14.9201 134.043 14.7724 134.418 14.477C134.796 14.1777 135.08 13.7762 135.27 13.2724C135.463 12.7648 135.56 12.2004 135.56 11.5792C135.56 10.9656 135.465 10.4126 135.276 9.92014C135.09 9.42393 134.808 9.03189 134.429 8.74401C134.054 8.45234 133.582 8.30651 133.014 8.30651C132.469 8.30651 132.01 8.44476 131.639 8.72128C131.268 8.99401 130.988 9.37658 130.798 9.86901C130.609 10.3576 130.514 10.9277 130.514 11.5792Z" fill="white"/>
<defs>
<clipPath id="clip0_50_730">
<rect width="20" height="20" fill="white" transform="translate(141 0.942871)"/>
</clipPath>
</defs>
</svg>
