<svg width="226" height="44" viewBox="0 0 226 44" fill="none" xmlns="http://www.w3.org/2000/svg">
<path d="M215.841 26.159H198.539V43.1853H189.168V0.156898H198.539V16.8593H215.841V0.156898H225.072V43.1853H215.841V26.159Z" fill="white"/>
<path d="M139.163 26.2053H121.721L121.674 29.3514C121.721 32.914 123.02 34.1632 126.638 34.1632L148.208 34.1169V43.2778C140.647 43.2316 132.065 43.3704 124.411 43.2316C117.268 42.954 112.722 37.9108 112.629 30.7857C112.583 27.7783 112.536 24.7247 112.536 21.7174V21.486C112.536 18.4787 112.583 15.5176 112.629 12.5102C112.722 5.38508 117.268 0.341968 124.411 0.0643654C132.065 -0.0744358 140.601 0.0643654 148.208 0.0180983V9.17898L126.638 9.13271C123.02 9.13271 121.721 10.3819 121.674 13.9445L121.721 17.0907H139.163V26.2053Z" fill="white"/>
<path d="M149.739 21.5786C149.739 24.4009 150.064 27.4082 150.806 30.1842C152.893 38.1884 158.367 42.9077 166.949 43.1853C172.608 43.3704 180.076 43.0928 185.736 43.139V34.1169H169.361C162.913 34.1169 160.083 32.1737 159.156 25.8814C158.924 24.4934 158.97 21.5786 158.97 21.5786C158.97 20.9771 158.97 18.8488 159.156 17.4145C160.083 11.1222 162.913 9.17898 169.361 9.17898H185.736V0.110631C180.076 0.156898 172.608 -0.120704 166.949 0.0643639C158.367 0.341966 152.893 5.06121 150.806 13.0654C150.017 15.8877 149.693 18.71 149.739 21.5786Z" fill="white"/>
<path d="M75.1014 0.156898H111.005V9.17898H97.7385V43.2778H88.3218V9.17898H75.1014V0.156898Z" fill="white"/>
<path d="M69.9524 21.6248C71.0193 20.5607 72.0398 19.3115 72.6892 17.8772C76.4002 9.50285 71.0193 0.388235 61.8346 0.0643654H38.1769V9.17898H60.6285C62.9479 9.17898 64.6642 10.8446 64.7106 13.0192C64.757 15.2862 63.2726 16.8593 60.8604 17.0444C60.3965 17.0907 38.2233 17.0444 38.2233 17.0444V43.0928H61.881C71.0657 42.7689 76.4466 33.6543 72.7356 25.2799C72.0862 23.9382 71.0657 22.689 69.9524 21.6248ZM60.6285 34.0244H47.408V26.159C53.5776 26.159 60.6285 26.159 60.8604 26.159C63.2726 26.3441 64.8034 27.9172 64.7106 30.1842C64.6178 32.3588 62.9479 34.0244 60.6285 34.0244Z" fill="#EE8022"/>
<path d="M9.09195 43.139H0.0463867V29.2589C0.185549 22.3188 4.77791 17.5996 11.7824 17.1832C15.3079 16.9981 18.8333 17.1369 22.3588 17.0907C24.3998 17.0444 25.9306 16.0265 26.3945 14.4072C26.8584 12.6953 26.4409 11.2147 25.0493 10.0581C24.3071 9.45658 23.4257 9.17898 22.4516 9.22525H12.8957V0.156898H21.8021C23.7968 0.156898 24.6318 0.341967 25.6987 0.573302C32.0538 1.82251 35.7184 6.72683 35.5792 13.6669C35.4401 20.1905 31.3116 24.9561 25.0029 25.8351C21.1991 26.3903 17.3953 26.0202 13.5452 26.1127C10.6691 26.159 9.09195 27.5007 9.09195 30.4156V43.139Z" fill="#EE8022"/>
<path d="M9.04557 0.156898H0V9.17898H9.04557V0.156898Z" fill="white"/>
</svg>
