<svg width="135" height="576" viewBox="0 0 135 576" fill="none" xmlns="http://www.w3.org/2000/svg">
<g clip-path="url(#clip0_50_711)">
<path d="M63.4306 573.988C71.1002 573.988 75.2963 567.633 75.2963 562.123C75.2963 561.944 75.2923 561.761 75.2844 561.583C76.1007 560.992 76.8051 560.261 77.3646 559.424C76.6044 559.762 75.7972 559.983 74.9707 560.079C75.841 559.557 76.4926 558.738 76.8047 557.772C75.986 558.257 75.0907 558.6 74.1571 558.784C73.5281 558.116 72.6964 557.673 71.7907 557.525C70.8849 557.377 69.9555 557.531 69.1462 557.964C68.3369 558.397 67.6927 559.084 67.3133 559.92C66.9338 560.756 66.8403 561.693 67.047 562.587C65.3893 562.504 63.7676 562.073 62.2869 561.323C60.8063 560.573 59.4999 559.52 58.4523 558.233C57.9199 559.151 57.7569 560.237 57.9966 561.271C58.2363 562.305 58.8607 563.208 59.7427 563.798C59.0805 563.777 58.4328 563.599 57.8531 563.278V563.33C57.8525 564.293 58.1856 565.227 58.7957 565.973C59.4057 566.718 60.2551 567.229 61.1995 567.42C60.5861 567.587 59.9423 567.612 59.3179 567.491C59.5844 568.319 60.1029 569.044 60.801 569.564C61.4992 570.083 62.3421 570.372 63.2122 570.39C61.735 571.55 59.9103 572.179 58.0318 572.176C57.6987 572.176 57.3659 572.155 57.0352 572.115C58.9435 573.339 61.1634 573.99 63.4306 573.988Z" fill="white"/>
</g>
<g clip-path="url(#clip1_50_711)">
<path d="M105.962 5.93281C105.962 5.93281 105.763 4.6969 105.152 4.15422C104.378 3.43998 103.512 3.43648 103.115 3.39446C100.272 3.2124 96.0038 3.2124 96.0038 3.2124H95.9959C95.9959 3.2124 91.7275 3.2124 88.8846 3.39446C88.4875 3.43648 87.6219 3.43998 86.8476 4.15422C86.2362 4.6969 86.0416 5.93281 86.0416 5.93281C86.0416 5.93281 85.8351 7.38579 85.8351 8.83527V10.1937C85.8351 11.6432 86.0376 13.0962 86.0376 13.0962C86.0376 13.0962 86.2362 14.3321 86.8437 14.8748C87.6179 15.589 88.6344 15.5645 89.0871 15.6415C90.715 15.7781 95.9998 15.8201 95.9998 15.8201C95.9998 15.8201 100.272 15.8131 103.115 15.6345C103.512 15.5925 104.378 15.589 105.152 14.8748C105.763 14.3321 105.962 13.0962 105.962 13.0962C105.962 13.0962 106.165 11.6467 106.165 10.1937V8.83527C106.165 7.38579 105.962 5.93281 105.962 5.93281ZM93.8994 11.8428V6.8046L99.3907 9.33244L93.8994 11.8428Z" fill="white"/>
</g>
<g clip-path="url(#clip2_50_711)">
<path d="M133.418 555H115.613C114.76 555 114.07 555.655 114.07 556.465V573.86C114.07 574.67 114.76 575.329 115.613 575.329H133.418C134.271 575.329 134.965 574.67 134.965 573.864V556.465C134.965 555.655 134.271 555 133.418 555ZM120.269 572.324H117.168V562.62H120.269V572.324ZM118.719 561.297C117.723 561.297 116.919 560.515 116.919 559.55C116.919 558.585 117.723 557.803 118.719 557.803C119.71 557.803 120.514 558.585 120.514 559.55C120.514 560.511 119.71 561.297 118.719 561.297ZM131.875 572.324H128.778V567.607C128.778 566.483 128.758 565.034 127.166 565.034C125.554 565.034 125.309 566.261 125.309 567.527V572.324H122.216V562.62H125.187V563.946H125.228C125.64 563.183 126.652 562.377 128.158 562.377C131.296 562.377 131.875 564.386 131.875 566.999V572.324Z" fill="white"/>
</g>
<g clip-path="url(#clip3_50_711)">
<path d="M10.1647 556.83C12.8806 556.83 13.2022 556.842 14.2703 556.89C15.2629 556.934 15.7989 557.1 16.1563 557.239C16.6288 557.422 16.9703 557.644 17.3237 557.998C17.681 558.355 17.8994 558.693 18.082 559.165C18.221 559.522 18.3878 560.062 18.4314 561.051C18.4791 562.123 18.491 562.445 18.491 565.157C18.491 567.873 18.4791 568.194 18.4314 569.262C18.3878 570.255 18.221 570.791 18.082 571.148C17.8994 571.621 17.677 571.962 17.3237 572.316C16.9663 572.673 16.6288 572.891 16.1563 573.074C15.7989 573.213 15.2589 573.38 14.2703 573.424C13.1982 573.471 12.8766 573.483 10.1647 573.483C7.44881 573.483 7.1272 573.471 6.05911 573.424C5.06646 573.38 4.53043 573.213 4.17308 573.074C3.70058 572.891 3.35911 572.669 3.00573 572.316C2.64838 571.958 2.43 571.621 2.24735 571.148C2.10838 570.791 1.94161 570.251 1.89794 569.262C1.85029 568.19 1.83838 567.869 1.83838 565.157C1.83838 562.441 1.85029 562.119 1.89794 561.051C1.94161 560.059 2.10838 559.522 2.24735 559.165C2.43 558.693 2.65235 558.351 3.00573 557.998C3.36308 557.64 3.70058 557.422 4.17308 557.239C4.53043 557.1 5.07043 556.934 6.05911 556.89C7.1272 556.842 7.44881 556.83 10.1647 556.83ZM10.1647 555C7.40514 555 7.0597 555.012 5.97573 555.06C4.89573 555.107 4.15323 555.282 3.50999 555.532C2.83897 555.794 2.27117 556.14 1.70735 556.707C1.13956 557.271 0.794116 557.839 0.532058 558.506C0.281911 559.153 0.107206 559.892 0.0595587 560.972C0.0119117 562.06 0 562.405 0 565.165C0 567.924 0.0119117 568.27 0.0595587 569.354C0.107206 570.434 0.281911 571.176 0.532058 571.819C0.794116 572.49 1.13956 573.058 1.70735 573.622C2.27117 574.186 2.83897 574.535 3.50602 574.793C4.15323 575.043 4.89176 575.218 5.97176 575.266C7.05572 575.313 7.40117 575.325 10.1607 575.325C12.9203 575.325 13.2657 575.313 14.3497 575.266C15.4297 575.218 16.1722 575.043 16.8154 574.793C17.4825 574.535 18.0503 574.186 18.6141 573.622C19.1779 573.058 19.5273 572.49 19.7854 571.823C20.0356 571.176 20.2103 570.438 20.2579 569.358C20.3056 568.274 20.3175 567.928 20.3175 565.169C20.3175 562.409 20.3056 562.064 20.2579 560.98C20.2103 559.9 20.0356 559.157 19.7854 558.514C19.5353 557.839 19.1898 557.271 18.622 556.707C18.0582 556.144 17.4904 555.794 16.8234 555.536C16.1762 555.286 15.4376 555.111 14.3576 555.064C13.2697 555.012 12.9242 555 10.1647 555Z" fill="white"/>
<path d="M10.1647 559.943C7.28205 559.943 4.94337 562.282 4.94337 565.165C4.94337 568.047 7.28205 570.386 10.1647 570.386C13.0473 570.386 15.386 568.047 15.386 565.165C15.386 562.282 13.0473 559.943 10.1647 559.943ZM10.1647 568.552C8.29455 568.552 6.77778 567.035 6.77778 565.165C6.77778 563.295 8.29455 561.778 10.1647 561.778C12.0348 561.778 13.5516 563.295 13.5516 565.165C13.5516 567.035 12.0348 568.552 10.1647 568.552Z" fill="white"/>
<path d="M16.8114 559.737C16.8114 560.412 16.2635 560.956 15.5925 560.956C14.9175 560.956 14.3735 560.408 14.3735 559.737C14.3735 559.062 14.9214 558.518 15.5925 558.518C16.2635 558.518 16.8114 559.066 16.8114 559.737Z" fill="white"/>
</g>
<g clip-path="url(#clip4_50_711)">
<path d="M49.1293 565.165C49.1293 559.551 44.5785 555 38.9646 555C33.3508 555 28.8 559.551 28.8 565.165C28.8 570.238 32.517 574.443 37.3764 575.206V568.103H34.7955V565.165H37.3764V562.925C37.3764 560.378 38.894 558.971 41.2158 558.971C42.3275 558.971 43.4911 559.169 43.4911 559.169V561.671H42.2094C40.9468 561.671 40.5529 562.454 40.5529 563.259V565.165H43.372L42.9213 568.103H40.5529V575.206C45.4123 574.443 49.1293 570.238 49.1293 565.165Z" fill="white"/>
</g>
<defs>
<clipPath id="clip0_50_711">
<rect width="20.3294" height="20.3294" fill="white" transform="translate(57.0352 555.565)"/>
</clipPath>
<clipPath id="clip1_50_711">
<rect width="20.3294" height="17.926" fill="white" transform="translate(85.8351 0.555176)"/>
</clipPath>
<clipPath id="clip2_50_711">
<rect width="20.8941" height="20.3294" fill="white" transform="translate(114.07 555)"/>
</clipPath>
<clipPath id="clip3_50_711">
<rect width="20.3294" height="20.3294" fill="white" transform="translate(0 555)"/>
</clipPath>
<clipPath id="clip4_50_711">
<rect width="20.3294" height="20.3294" fill="white" transform="translate(28.8 555)"/>
</clipPath>
</defs>
</svg>
