<svg width="135" height="16" viewBox="0 0 135 16" fill="none" xmlns="http://www.w3.org/2000/svg">
<g clip-path="url(#clip0_50_711)">
<path d="M63.4306 12.7381C71.1002 12.7381 75.2963 9.07235 75.2963 5.89437C75.2963 5.79132 75.2923 5.68598 75.2844 5.58292C76.1007 5.24245 76.8051 4.82072 77.3646 4.33756C76.6044 4.53264 75.7972 4.66005 74.9707 4.71543C75.841 4.41456 76.4926 3.94192 76.8047 3.38511C75.986 3.66495 75.0907 3.86235 74.1571 3.96885C73.5281 3.58336 72.6964 3.32812 71.7907 3.24259C70.8849 3.15706 69.9555 3.24601 69.1462 3.49568C68.3369 3.74536 67.6927 4.14185 67.3133 4.62386C66.9338 5.10587 66.8403 5.64656 67.047 6.16232C65.3893 6.11434 63.7676 5.86596 62.2869 5.43329C60.8063 5.00063 59.4999 4.39332 58.4523 3.65076C57.9199 4.18022 57.7569 4.80674 57.9966 5.403C58.2363 5.99926 58.8607 6.5205 59.7427 6.8608C59.0805 6.84867 58.4328 6.74584 57.8531 6.56079V6.59057C57.8525 7.1462 58.1856 7.6848 58.7957 8.11482C59.4057 8.54483 60.2551 8.83973 61.1995 8.94937C60.5861 9.04618 59.9423 9.06028 59.3179 8.9906C59.5844 9.46844 60.1029 9.88638 60.801 10.1861C61.4992 10.4858 62.3421 10.6523 63.2122 10.6624C61.735 11.3316 59.9103 11.6946 58.0318 11.6929C57.6987 11.6926 57.3659 11.6808 57.0352 11.6577C58.9435 12.3638 61.1634 12.7388 63.4306 12.7381Z" fill="white"/>
</g>
<path d="M105.801 4.8002C105.801 4.8002 105.605 3.69707 105.004 3.2127C104.242 2.5752 103.391 2.57207 103 2.53457C100.203 2.37207 96.0039 2.37207 96.0039 2.37207H95.9961C95.9961 2.37207 91.7969 2.37207 89 2.53457C88.6094 2.57207 87.7578 2.5752 86.9961 3.2127C86.3945 3.69707 86.2031 4.8002 86.2031 4.8002C86.2031 4.8002 86 6.09707 86 7.39082V8.60332C86 9.89707 86.1992 11.1939 86.1992 11.1939C86.1992 11.1939 86.3945 12.2971 86.9922 12.7814C87.7539 13.4189 88.7539 13.3971 89.1992 13.4658C90.8008 13.5877 96 13.6252 96 13.6252C96 13.6252 100.203 13.6189 103 13.4596C103.391 13.4221 104.242 13.4189 105.004 12.7814C105.605 12.2971 105.801 11.1939 105.801 11.1939C105.801 11.1939 106 9.90019 106 8.60332V7.39082C106 6.09707 105.801 4.8002 105.801 4.8002ZM93.9336 10.0752V5.57832L99.3359 7.83457L93.9336 10.0752Z" fill="white"/>
<g clip-path="url(#clip1_50_711)">
<path d="M133.418 1.78613H115.613C114.76 1.78613 114.07 2.164 114.07 2.63118V12.6641C114.07 13.1313 114.76 13.5115 115.613 13.5115H133.418C134.271 13.5115 134.965 13.1313 134.965 12.6664V2.63118C134.965 2.164 134.271 1.78613 133.418 1.78613ZM120.269 11.7779H117.168V6.18084H120.269V11.7779ZM118.719 5.41824C117.723 5.41824 116.919 4.96709 116.919 4.41059C116.919 3.8541 117.723 3.40295 118.719 3.40295C119.71 3.40295 120.514 3.8541 120.514 4.41059C120.514 4.9648 119.71 5.41824 118.719 5.41824ZM131.875 11.7779H128.778V9.05721C128.778 8.40911 128.758 7.57323 127.166 7.57323C125.554 7.57323 125.309 8.28087 125.309 9.01141V11.7779H122.216V6.18084H125.187V6.94574H125.228C125.64 6.50604 126.652 6.04115 128.158 6.04115C131.296 6.04115 131.875 7.19994 131.875 8.70683V11.7779V11.7779Z" fill="white"/>
</g>
<g clip-path="url(#clip2_50_711)">
<path d="M10.1647 2.84187C12.8806 2.84187 13.2022 2.84874 14.2703 2.87622C15.2629 2.90141 15.7989 2.9976 16.1563 3.07775C16.6288 3.1831 16.9703 3.31134 17.3237 3.51516C17.681 3.72127 17.8994 3.91593 18.082 4.18845C18.221 4.39456 18.3878 4.70602 18.4314 5.27625C18.4791 5.89458 18.491 6.08008 18.491 7.64422C18.491 9.21065 18.4791 9.39615 18.4314 10.0122C18.3878 10.5847 18.221 10.8939 18.082 11.1C17.8994 11.3725 17.677 11.5695 17.3237 11.7733C16.9663 11.9794 16.6288 12.1053 16.1563 12.2107C15.7989 12.2908 15.2589 12.387 14.2703 12.4122C13.1982 12.4397 12.8766 12.4466 10.1647 12.4466C7.44881 12.4466 7.1272 12.4397 6.05911 12.4122C5.06646 12.387 4.53043 12.2908 4.17308 12.2107C3.70058 12.1053 3.35911 11.9771 3.00573 11.7733C2.64838 11.5672 2.43 11.3725 2.24735 11.1C2.10838 10.8939 1.94161 10.5824 1.89794 10.0122C1.85029 9.39386 1.83838 9.20836 1.83838 7.64422C1.83838 6.07779 1.85029 5.89229 1.89794 5.27625C1.94161 4.70373 2.10838 4.39456 2.24735 4.18845C2.43 3.91593 2.65235 3.71898 3.00573 3.51516C3.36308 3.30905 3.70058 3.1831 4.17308 3.07775C4.53043 2.9976 5.07043 2.90141 6.05911 2.87622C7.1272 2.84874 7.44881 2.84187 10.1647 2.84187ZM10.1647 1.78613C7.40514 1.78613 7.0597 1.793 5.97573 1.82048C4.89573 1.84797 4.15323 1.94873 3.50999 2.09301C2.83897 2.24415 2.27117 2.44339 1.70735 2.77088C1.13956 3.09607 0.794116 3.42356 0.532058 3.80829C0.281911 4.18158 0.107206 4.60754 0.0595587 5.23045C0.0119117 5.85794 0 6.05718 0 7.6488C0 9.24042 0.0119117 9.43966 0.0595587 10.0649C0.107206 10.6878 0.281911 11.116 0.532058 11.487C0.794116 11.874 1.13956 12.2015 1.70735 12.5267C2.27117 12.8519 2.83897 13.0534 3.50602 13.2023C4.15323 13.3466 4.89176 13.4473 5.97176 13.4748C7.05572 13.5023 7.40117 13.5092 10.1607 13.5092C12.9203 13.5092 13.2657 13.5023 14.3497 13.4748C15.4297 13.4473 16.1722 13.3466 16.8154 13.2023C17.4825 13.0534 18.0503 12.8519 18.6141 12.5267C19.1779 12.2015 19.5273 11.874 19.7854 11.4893C20.0356 11.116 20.2103 10.6901 20.2579 10.0671C20.3056 9.44195 20.3175 9.24271 20.3175 7.65109C20.3175 6.05947 20.3056 5.86023 20.2579 5.23503C20.2103 4.61212 20.0356 4.18387 19.7854 3.81287C19.5353 3.42356 19.1898 3.09607 18.622 2.77088C18.0582 2.44568 17.4904 2.24415 16.8234 2.0953C16.1762 1.95102 15.4376 1.85026 14.3576 1.82277C13.2697 1.793 12.9242 1.78613 10.1647 1.78613Z" fill="white"/>
<path d="M10.1647 4.63721C7.28205 4.63721 4.94337 5.98608 4.94337 7.64869C4.94337 9.31131 7.28205 10.6602 10.1647 10.6602C13.0473 10.6602 15.386 9.31131 15.386 7.64869C15.386 5.98608 13.0473 4.63721 10.1647 4.63721ZM10.1647 9.60215C8.29455 9.60215 6.77778 8.72733 6.77778 7.64869C6.77778 6.57006 8.29455 5.69524 10.1647 5.69524C12.0348 5.69524 13.5516 6.57006 13.5516 7.64869C13.5516 8.72733 12.0348 9.60215 10.1647 9.60215Z" fill="white"/>
<path d="M16.8114 4.518C16.8114 4.90732 16.2635 5.22107 15.5925 5.22107C14.9175 5.22107 14.3735 4.90503 14.3735 4.518C14.3735 4.12869 14.9214 3.81494 15.5925 3.81494C16.2635 3.81494 16.8114 4.13098 16.8114 4.518Z" fill="white"/>
</g>
<g clip-path="url(#clip3_50_711)">
<path d="M49.1293 7.6488C49.1293 4.41094 44.5785 1.78613 38.9646 1.78613C33.3508 1.78613 28.8 4.41094 28.8 7.6488C28.8 10.575 32.517 13.0004 37.3764 13.4402V9.34348H34.7955V7.6488H37.3764V6.35718C37.3764 4.88785 38.894 4.07624 41.2158 4.07624C42.3275 4.07624 43.4911 4.19074 43.4911 4.19074V5.63351H42.2094C40.9468 5.63351 40.5529 6.08546 40.5529 6.54955V7.6488H43.372L42.9213 9.34348H40.5529V13.4402C45.4123 13.0004 49.1293 10.575 49.1293 7.6488Z" fill="white"/>
</g>
<defs>
<clipPath id="clip0_50_711">
<rect width="20.3294" height="11.7253" fill="white" transform="translate(57.0352 2.11182)"/>
</clipPath>
<clipPath id="clip1_50_711">
<rect width="20.8941" height="11.7253" fill="white" transform="translate(114.07 1.78613)"/>
</clipPath>
<clipPath id="clip2_50_711">
<rect width="20.3294" height="11.7253" fill="white" transform="translate(0 1.78613)"/>
</clipPath>
<clipPath id="clip3_50_711">
<rect width="20.3294" height="11.7253" fill="white" transform="translate(28.8 1.78613)"/>
</clipPath>
</defs>
</svg>
